<svg xmlns="http://www.w3.org/2000/svg" viewBox="0 0 1200 620" role="img" aria-label="Sector distribution of incidents included in the OT cyberattack chronology"><rect width="1200" height="620" rx="22" fill="#0b111c"/><text x="56" y="52" fill="#f3f6fa" font-family="Inter,Arial" font-size="28" font-weight="700">Sector distribution in this chronology</text><text x="56" y="80" fill="#9aa8b8" font-family="Inter,Arial" font-size="14">24 selected incidents/campaigns; this is not a measure of global attack prevalence</text><path d="M330 125 A190 190 0 0 1 513.53 364.18 L431.42 342.18 A105 105 0 0 0 330 210 Z" fill="#4fd1c5" stroke="#0b111c" stroke-width="5"/><path d="M513.53 364.18 A190 190 0 0 1 280.82 498.53 L302.82 416.42 A105 105 0 0 0 431.42 342.18 Z" fill="#5ea7ff" stroke="#0b111c" stroke-width="5"/><path d="M280.82 498.53 A190 190 0 0 1 146.47 364.18 L228.58 342.18 A105 105 0 0 0 302.82 416.42 Z" fill="#8c78d8" stroke="#0b111c" stroke-width="5"/><path d="M146.47 364.18 A190 190 0 0 1 165.46 220 L239.07 262.5 A105 105 0 0 0 228.58 342.18 Z" fill="#e8a33d" stroke="#0b111c" stroke-width="5"/><path d="M165.46 220 A190 190 0 0 1 280.82 131.47 L302.82 213.58 A105 105 0 0 0 239.07 262.5 Z" fill="#d45b67" stroke="#0b111c" stroke-width="5"/><path d="M280.82 131.47 A190 190 0 0 1 330 125 L330 210 A105 105 0 0 0 302.82 213.58 Z" fill="#8aa36b" stroke="#0b111c" stroke-width="5"/><text x="330" y="307" fill="#f3f6fa" font-family="Space Grotesk,Arial" font-size="46" font-weight="700" text-anchor="middle">24</text><text x="330" y="338" fill="#9aa8b8" font-family="Inter,Arial" font-size="14" text-anchor="middle">INCIDENTS / CAMPAIGNS</text><g font-family="Inter,Arial"><rect x="650" y="133" width="18" height="18" rx="4" fill="#4fd1c5"/><text x="684" y="147" fill="#f3f6fa" font-size="18" font-weight="600">Energy / power / heating</text><text x="684" y="171" fill="#9aa8b8" font-family="IBM Plex Mono,monospace" font-size="14">7 cases · 29.2%</text><rect x="650" y="203" width="18" height="18" rx="4" fill="#5ea7ff"/><text x="684" y="217" fill="#f3f6fa" font-size="18" font-weight="600">Water / wastewater</text><text x="684" y="241" fill="#9aa8b8" font-family="IBM Plex Mono,monospace" font-size="14">6 cases · 25.0%</text><rect x="650" y="273" width="18" height="18" rx="4" fill="#8c78d8"/><text x="684" y="287" fill="#f3f6fa" font-size="18" font-weight="600">Cross-sector / communications</text><text x="684" y="311" fill="#9aa8b8" font-family="IBM Plex Mono,monospace" font-size="14">4 cases · 16.7%</text><rect x="650" y="343" width="18" height="18" rx="4" fill="#e8a33d"/><text x="684" y="357" fill="#f3f6fa" font-size="18" font-weight="600">Manufacturing</text><text x="684" y="381" fill="#9aa8b8" font-family="IBM Plex Mono,monospace" font-size="14">3 cases · 12.5%</text><rect x="650" y="413" width="18" height="18" rx="4" fill="#d45b67"/><text x="684" y="427" fill="#f3f6fa" font-size="18" font-weight="600">Oil, gas &amp; petrochemical</text><text x="684" y="451" fill="#9aa8b8" font-family="IBM Plex Mono,monospace" font-size="14">3 cases · 12.5%</text><rect x="650" y="483" width="18" height="18" rx="4" fill="#8aa36b"/><text x="684" y="497" fill="#f3f6fa" font-size="18" font-weight="600">Nuclear</text><text x="684" y="521" fill="#9aa8b8" font-family="IBM Plex Mono,monospace" font-size="14">1 case · 4.2%</text></g></svg>